<?xml version="1.0" encoding="UTF-8"?>
<svg width="29px" height="33px" viewBox="0 0 29 33" version="1.1" xmlns="http://www.w3.org/2000/svg" xmlns:xlink="http://www.w3.org/1999/xlink">
    <!-- Generator: Sketch 42 (36781) - http://www.bohemiancoding.com/sketch -->
    <title>noun_568419_cc</title>
    <desc>Created with Sketch.</desc>
    <defs></defs>
    <g id="Page-1" stroke="none" stroke-width="1" fill="none" fill-rule="evenodd">
        <g id="iPhone-7" transform="translate(-49.000000, -57.000000)" fill-rule="nonzero" fill="#D26040">
            <g id="noun_568419_cc" transform="translate(49.000000, 57.000000)">
                <g id="Group">
                    <g id="Shape">
                        <path d="M19.5564103,13.7866667 C19.8166667,13.2 19.4820513,12.1366667 18.5897436,10.8166667 C18.3666667,10.45 18.1064103,10.1566667 17.8833333,9.86333333 L17.8833333,14.52 C18.5897436,14.4833333 19.3333333,14.3 19.5564103,13.7866667 Z"></path>
                        <path d="M14.5,0.0733333333 C6.61794872,0.0733333333 0.26025641,6.38 0.26025641,14.1166667 C0.26025641,20.3133333 4.31282051,25.5566667 9.96410256,27.4266667 L14.5,32.9266667 L19.0358974,27.4633333 C24.6871795,25.5933333 28.7397436,20.35 28.7397436,14.1533333 C28.7397436,6.38 22.3820513,0.0733333333 14.5,0.0733333333 Z M14.0538462,11.22 C14.0538462,14.0433333 12.7525641,14.7766667 11.7115385,14.9233333 L11.7115385,20.57 C11.7115385,20.8266667 11.4884615,21.0466667 11.2282051,21.0466667 C10.9679487,21.0466667 10.7448718,20.8266667 10.7448718,20.57 L10.7448718,14.9233333 C9.66666667,14.7766667 8.32820513,14.0433333 8.32820513,11.22 L8.32820513,8.50666667 C8.32820513,8.25 8.55128205,8.03 8.81153846,8.03 C9.07179487,8.03 9.29487179,8.25 9.29487179,8.50666667 L9.29487179,11.22 C9.29487179,13.31 10.1128205,13.7866667 10.7076923,13.9333333 L10.7076923,8.50666667 C10.7076923,8.25 10.9307692,8.03 11.1910256,8.03 C11.4512821,8.03 11.674359,8.25 11.674359,8.50666667 L11.674359,13.8966667 C13.0871795,13.6033333 13.0871795,11.8433333 13.0871795,11.22 L13.0871795,8.50666667 C13.0871795,8.25 13.3102564,8.03 13.5705128,8.03 C13.8307692,8.03 14.0538462,8.25 14.0538462,8.50666667 L14.0538462,11.22 L14.0538462,11.22 Z M20.4858974,14.19 C20.1141026,14.9966667 19.2589744,15.4366667 17.8833333,15.51 L17.8833333,20.5333333 C17.8833333,20.79 17.6602564,21.01 17.4,21.01 C17.1397436,21.01 16.9166667,20.79 16.9166667,20.5333333 L16.9166667,8.50666667 C16.9166667,8.28666667 17.0282051,8.10333333 17.2512821,8.03 C17.4371795,7.95666667 17.6602564,7.99333333 17.8089744,8.14 C18.1435897,8.58 21.4153846,12.1 20.4858974,14.19 Z"></path>
                    </g>
                </g>
            </g>
        </g>
    </g>
</svg>